<?xml version="1.0" encoding="utf-8"?>
<!-- Generator: Adobe Illustrator 24.0.1, SVG Export Plug-In . SVG Version: 6.00 Build 0)  -->
<svg version="1.1" id="Layer_1" xmlns="http://www.w3.org/2000/svg" xmlns:xlink="http://www.w3.org/1999/xlink" x="0px" y="0px"
	 viewBox="0 0 2500 2500" style="enable-background:new 0 0 2500 2500;" xml:space="preserve">
<style type="text/css">
	.st0{fill:#EDF7F6;}
	.st1{fill-rule:evenodd;clip-rule:evenodd;fill:#EDF7F6;}
</style>
<g>
	<path class="st0" d="M2147.3,2042.4c-1012,481.6-1640.1,78.7-2042.1-166.1c-24.9-15.4-67.2,3.6-30.5,45.7
		c133.9,162.4,572.9,553.8,1145.8,553.8c573.3,0,914.4-312.8,957.1-367.4C2220.1,2054.4,2190.1,2024.6,2147.3,2042.4L2147.3,2042.4z
		 M2431.5,1885.5c-27.2-35.4-165.3-42-252.1-31.3c-87,10.4-217.7,63.6-206.3,95.5c5.8,12,17.7,6.6,77.5,1.2
		c59.9-6,227.9-27.2,262.9,18.6c35.2,46.1-53.6,265.5-69.8,300.9c-15.7,35.4,6,44.5,35.4,20.9c29-23.6,81.5-84.6,116.7-170.9
		C2430.8,2033.5,2452.2,1912.4,2431.5,1885.5L2431.5,1885.5z"/>
	<path class="st1" d="M1466.8,1059.7c0,126.4,3.2,231.8-60.7,344c-51.6,91.3-133.2,147.4-224.5,147.4c-124.6,0-197.1-94.9-197.1-235
		c0-276.5,247.7-326.7,482.2-326.7V1059.7z M1794,1850.3c-21.4,19.2-52.5,20.5-76.6,7.8c-107.7-89.4-126.8-130.9-186.1-216.2
		c-177.9,181.6-303.8,235.9-534.7,235.9c-272.8,0-485.4-168.3-485.4-505.5c0-263.2,142.8-442.5,345.8-530.1
		c176.1-77.6,422-91.3,610-112.7v-42c0-77.1,5.9-168.3-39.2-235c-39.7-59.8-115.4-84.4-182-84.4c-123.6,0-234,63.4-261,194.8
		c-5.5,29.2-26.9,57.9-56.1,59.3l-314.8-33.8c-26.5-5.9-55.7-27.4-48.4-68c72.5-381.4,417-496.4,725.4-496.4
		c157.9,0,364.1,42,488.6,161.5c157.9,147.4,142.8,344,142.8,558V1249c0,151.9,63,218.5,122.3,300.7c21,29.2,25.6,64.3-0.9,86.2
		c-66.2,55.2-183.9,157.9-248.6,215.3L1794,1850.3"/>
	<path class="st0" d="M2147.3,2042.4c-1012,481.6-1640.1,78.7-2042.1-166.1c-24.9-15.4-67.2,3.6-30.5,45.7
		c133.9,162.4,572.9,553.8,1145.8,553.8c573.3,0,914.4-312.8,957.1-367.4C2220.1,2054.4,2190.1,2024.6,2147.3,2042.4L2147.3,2042.4z
		 M2431.5,1885.5c-27.2-35.4-165.3-42-252.1-31.3c-87,10.4-217.7,63.6-206.3,95.5c5.8,12,17.7,6.6,77.5,1.2
		c59.9-6,227.9-27.2,262.9,18.6c35.2,46.1-53.6,265.5-69.8,300.9c-15.7,35.4,6,44.5,35.4,20.9c29-23.6,81.5-84.6,116.7-170.9
		C2430.8,2033.5,2452.2,1912.4,2431.5,1885.5L2431.5,1885.5z"/>
	<path class="st1" d="M1466.8,1059.7c0,126.4,3.2,231.8-60.7,344c-51.6,91.3-133.2,147.4-224.5,147.4c-124.6,0-197.1-94.9-197.1-235
		c0-276.5,247.7-326.7,482.2-326.7V1059.7z M1794,1850.3c-21.4,19.2-52.5,20.5-76.6,7.8c-107.7-89.4-126.8-130.9-186.1-216.2
		c-177.9,181.6-303.8,235.9-534.7,235.9c-272.8,0-485.4-168.3-485.4-505.5c0-263.2,142.8-442.5,345.8-530.1
		c176.1-77.6,422-91.3,610-112.7v-42c0-77.1,5.9-168.3-39.2-235c-39.7-59.8-115.4-84.4-182-84.4c-123.6,0-234,63.4-261,194.8
		c-5.5,29.2-26.9,57.9-56.1,59.3l-314.8-33.8c-26.5-5.9-55.7-27.4-48.4-68c72.5-381.4,417-496.4,725.4-496.4
		c157.9,0,364.1,42,488.6,161.5c157.9,147.4,142.8,344,142.8,558V1249c0,151.9,63,218.5,122.3,300.7c21,29.2,25.6,64.3-0.9,86.2
		c-66.2,55.2-183.9,157.9-248.6,215.3L1794,1850.3"/>
</g>
</svg>
