<?xml version="1.0" encoding="utf-8"?>
<!-- Generator: Adobe Illustrator 24.0.1, SVG Export Plug-In . SVG Version: 6.00 Build 0)  -->
<svg version="1.1" id="Layer_1" xmlns="http://www.w3.org/2000/svg" xmlns:xlink="http://www.w3.org/1999/xlink" x="0px" y="0px"
	 viewBox="0 0 32 32" style="enable-background:new 0 0 32 32;" xml:space="preserve">
<style type="text/css">
	.st0{fill:#EDF7F6;}
</style>
<title>apple-music</title>
<path class="st0" d="M32,8.2c0-1-0.1-2-0.3-2.9c-0.4-1.7-1.4-3.1-2.9-4.1c-0.8-0.5-1.6-0.8-2.5-1C25.6,0.1,24.9,0,24.2,0
	c-0.1,0-0.1,0-0.2,0H8C7.8,0,7.6,0,7.4,0c-1,0.1-2,0.2-2.9,0.5C2.7,1.3,1.4,2.5,0.6,4.3C0.4,4.9,0.2,5.5,0.2,6.2
	C0.1,6.7,0,7.2,0,7.7c0,0,0,0.1,0,0.1v16.3c0,0.2,0,0.4,0,0.6c0.1,1.1,0.2,2.2,0.7,3.2C1.6,29.8,3,31,5,31.6
	c0.6,0.2,1.1,0.3,1.7,0.3C7.5,32,8.2,32,9,32h14.7c0.7,0,1.4,0,2.1-0.1c1.1-0.1,2.1-0.5,3.1-1.1c1.1-0.7,2-1.7,2.5-2.9
	c0.3-0.6,0.4-1.2,0.5-1.8c0.2-0.9,0.2-1.8,0.2-2.7C32,18.3,32,13.2,32,8.2L32,8.2z M23.4,13.5v7.6c0,0.6-0.1,1.1-0.3,1.6
	c-0.4,0.8-1,1.3-1.8,1.5c-0.5,0.1-0.9,0.2-1.4,0.2c-1.3,0.1-2.4-0.8-2.6-2c-0.2-1,0.3-2.2,1.4-2.7c0.4-0.2,0.9-0.3,1.4-0.4
	c0.5-0.1,1-0.2,1.5-0.3c0.4-0.1,0.6-0.3,0.7-0.7c0-0.1,0-0.2,0-0.3c0-2.4,0-4.8,0-7.3c0-0.1,0-0.2,0-0.2c-0.1-0.2-0.2-0.3-0.4-0.3
	c-0.2,0-0.4,0-0.6,0.1c-1,0.2-2,0.4-3,0.6l-4.9,1c0,0,0,0-0.1,0c-0.4,0.1-0.5,0.3-0.5,0.7c0,0.1,0,0.1,0,0.2c0,3.5,0,6.9,0,10.4
	c0,0.6-0.1,1.1-0.3,1.6c-0.4,0.9-1,1.4-1.9,1.6c-0.5,0.1-0.9,0.2-1.4,0.2c-1.3,0-2.3-0.8-2.6-2.1c-0.2-1.1,0.3-2.3,1.5-2.8
	c0.5-0.2,1-0.3,1.5-0.4c0.4-0.1,0.8-0.2,1.1-0.2c0.5-0.1,0.8-0.4,0.8-1V20c0-3.9,0-7.9,0-11.8c0-0.2,0-0.3,0.1-0.5
	c0.1-0.4,0.4-0.6,0.7-0.7c0.3-0.1,0.7-0.2,1-0.2c1-0.2,2-0.4,2.9-0.6l3-0.6C20,5.4,20.9,5.2,21.8,5c0.3-0.1,0.6-0.1,0.9-0.1
	c0.4,0,0.7,0.2,0.7,0.6c0,0.1,0,0.2,0,0.3C23.4,8.4,23.4,10.9,23.4,13.5L23.4,13.5z"/>
</svg>
