<?xml version="1.0" encoding="utf-8"?>
<!-- Generator: Adobe Illustrator 24.0.1, SVG Export Plug-In . SVG Version: 6.00 Build 0)  -->
<svg version="1.1" id="Layer_1" xmlns="http://www.w3.org/2000/svg" xmlns:xlink="http://www.w3.org/1999/xlink" x="0px" y="0px"
	 viewBox="0 0 24 24" style="enable-background:new 0 0 24 24;" xml:space="preserve">
<style type="text/css">
	.st0{fill-rule:evenodd;clip-rule:evenodd;fill:#EDF7F6;}
</style>
<path class="st0" d="M19.1,10.6C15.2,8.3,8.8,8.1,5.2,9.3C4.6,9.4,3.9,9.1,3.8,8.5C3.6,7.9,3.9,7.3,4.5,7.1c4.2-1.3,11.3-1,15.7,1.6
	c0.5,0.3,0.7,1,0.4,1.5S19.6,11,19.1,10.6z M19,14c-0.3,0.4-0.8,0.6-1.3,0.3c-3.2-2-8.1-2.6-12-1.4c-0.5,0.1-1-0.1-1.2-0.6
	c-0.1-0.5,0.1-1,0.6-1.2c4.4-1.3,9.8-0.7,13.5,1.6C19.1,13,19.2,13.6,19,14z M17.5,17.3c-0.2,0.4-0.7,0.5-1,0.2
	c-2.8-1.7-6.4-2.1-10.5-1.2c-0.4,0.1-0.8-0.2-0.9-0.6c-0.1-0.4,0.2-0.8,0.6-0.9c4.6-1,8.5-0.6,11.7,1.3C17.6,16.5,17.7,17,17.5,17.3
	z M12,0C5.4,0,0,5.4,0,12c0,6.6,5.4,12,12,12c6.6,0,12-5.4,12-12C24,5.4,18.6,0,12,0z"/>
</svg>
