<?xml version="1.0" encoding="utf-8"?>
<!-- Generator: Adobe Illustrator 24.0.1, SVG Export Plug-In . SVG Version: 6.00 Build 0)  -->
<svg version="1.1" id="Layer_1" xmlns="http://www.w3.org/2000/svg" xmlns:xlink="http://www.w3.org/1999/xlink" x="0px" y="0px"
	 viewBox="0 0 24 24" style="enable-background:new 0 0 24 24;" xml:space="preserve">
<style type="text/css">
	.st0{fill:#EDF7F6;}
</style>
<path class="st0" d="M12,0C5.4,0,0,5.4,0,12s5.4,12,12,12s12-5.4,12-12S18.6,0,12,0z M13,16.1V13h3c-0.1,1.1-0.2,2.2-0.5,3.3
	C14.7,16.2,13.9,16.1,13,16.1z M15,18.2c-0.5,1.3-1.2,2.5-2,3.5v-3.6C13.7,18.1,14.3,18.1,15,18.2z M13,11V8c0.9,0,1.7-0.1,2.5-0.2
	c0.2,1,0.4,2.1,0.4,3.2H13z M13,6V2.3c0.8,1,1.5,2.2,2,3.5C14.3,5.9,13.7,6,13,6z M15.7,2.7c1.2,0.5,2.4,1.2,3.3,2.1
	c-0.6,0.2-1.3,0.4-2,0.6C16.6,4.5,16.2,3.6,15.7,2.7z M8.5,16.3c-0.2-1-0.4-2.1-0.5-3.3h3v3.1C10.1,16.1,9.3,16.2,8.5,16.3z
	 M11,18.1v3.6c-0.8-1-1.5-2.1-2-3.5C9.7,18.1,10.3,18.1,11,18.1z M8,11c0.1-1.1,0.2-2.2,0.4-3.2C9.3,7.9,10.1,8,11,8v3H8z M9,5.8
	c0.5-1.3,1.2-2.5,2-3.5V6C10.3,6,9.7,5.9,9,5.8z M7,5.5C6.3,5.3,5.6,5.1,5,4.9c0.9-0.9,2.1-1.7,3.3-2.1C7.8,3.6,7.4,4.5,7,5.5z
	 M6.5,7.4C6.2,8.5,6,9.7,6,11H2.1c0.2-1.7,0.7-3.2,1.6-4.5C4.5,6.8,5.5,7.2,6.5,7.4z M6.5,16.7c-1,0.2-1.9,0.5-2.8,0.9
	c-0.9-1.3-1.5-2.9-1.6-4.6H6C6,14.3,6.2,15.5,6.5,16.7z M7,18.6c0.3,1,0.8,1.9,1.3,2.7C7.1,20.8,6,20.1,5,19.2
	C5.7,18.9,6.3,18.7,7,18.6z M17,18.6c0.7,0.2,1.4,0.4,2,0.6c-0.9,0.9-2,1.6-3.3,2.1C16.2,20.4,16.6,19.5,17,18.6z M17.5,16.7
	c0.3-1.2,0.4-2.4,0.5-3.7h3.9c-0.2,1.7-0.7,3.2-1.6,4.6C19.4,17.2,18.5,16.9,17.5,16.7z M18,11c-0.1-1.3-0.2-2.5-0.5-3.6
	c1-0.2,1.9-0.5,2.8-0.9c0.9,1.3,1.5,2.9,1.6,4.5C21.9,11,18,11,18,11z"/>
</svg>
