<?xml version="1.0" encoding="utf-8"?>
<!-- Generator: Adobe Illustrator 24.0.1, SVG Export Plug-In . SVG Version: 6.00 Build 0)  -->
<svg version="1.1" id="Layer_1" xmlns="http://www.w3.org/2000/svg" xmlns:xlink="http://www.w3.org/1999/xlink" x="0px" y="0px"
	 viewBox="0 0 430.6 54.6" style="enable-background:new 0 0 430.6 54.6;" xml:space="preserve">
<style type="text/css">
	.st0{fill:#EDF7F6;}
</style>
<g>
	<path class="st0" d="M9.8,53.2c-4-0.9-7.2-2.2-9.8-3.8L5.5,37c2.4,1.4,5.1,2.5,8.1,3.3c3,0.8,5.8,1.3,8.6,1.3c2.4,0,4-0.2,5-0.7
		c1-0.5,1.5-1.1,1.5-2c0-1.1-0.7-1.8-2-2.4c-1.3-0.5-3.5-1.1-6.5-1.7c-3.9-0.8-7.1-1.7-9.7-2.6s-4.8-2.5-6.8-4.6s-2.9-5-2.9-8.7
		c0-3.2,0.9-6,2.7-8.6c1.8-2.6,4.4-4.6,8-6.1s7.8-2.2,12.9-2.2c3.5,0,6.9,0.4,10.2,1.1c3.3,0.7,6.3,1.8,8.8,3.3l-5.1,12.3
		c-4.9-2.5-9.6-3.7-14-3.7c-4.4,0-6.5,1.1-6.5,3.2c0,1,0.6,1.8,1.9,2.3c1.3,0.5,3.4,1,6.4,1.6c3.8,0.7,7.1,1.5,9.7,2.5
		c2.6,0.9,4.9,2.5,6.9,4.6c1.9,2.1,2.9,5,2.9,8.6c0,3.2-0.9,6-2.7,8.6c-1.8,2.6-4.4,4.6-8,6.1S27,54.6,22,54.6
		C17.8,54.6,13.7,54.1,9.8,53.2z"/>
	<path class="st0" d="M53.8,51.5c-3.5-1.7-6.3-4.2-8.3-7.3c-2-3.1-3-6.7-3-10.6c0-3.9,1-7.5,3-10.5s4.8-5.5,8.3-7.2s7.5-2.6,12-2.6
		c4.8,0,8.9,1,12.3,3.1c3.4,2.1,5.8,4.9,7.1,8.6l-12.6,6.2C71,27.7,68.7,26,65.7,26c-1.9,0-3.5,0.7-4.8,2c-1.3,1.3-1.9,3.2-1.9,5.7
		c0,2.5,0.6,4.4,1.9,5.8c1.3,1.3,2.9,2,4.8,2c3,0,5.3-1.7,6.8-5.2l12.6,6.2c-1.3,3.7-3.7,6.5-7.1,8.6c-3.4,2.1-7.5,3.1-12.3,3.1
		C61.3,54.1,57.3,53.3,53.8,51.5z"/>
	<path class="st0" d="M92.1,51.5c-3.5-1.8-6.2-4.2-8.2-7.3c-2-3.1-3-6.6-3-10.5c0-3.9,1-7.5,2.9-10.5c2-3.1,4.7-5.5,8.2-7.2
		c3.5-1.7,7.4-2.6,11.8-2.6c4.4,0,8.4,0.9,11.8,2.6c3.5,1.7,6.2,4.1,8.1,7.2c1.9,3.1,2.9,6.6,2.9,10.5s-1,7.5-2.9,10.5
		c-1.9,3.1-4.7,5.5-8.1,7.3c-3.5,1.8-7.4,2.6-11.8,2.6C99.5,54.1,95.6,53.3,92.1,51.5z M108.5,39.4c1.2-1.4,1.8-3.3,1.8-5.7
		c0-2.5-0.6-4.3-1.8-5.7c-1.2-1.3-2.7-2-4.6-2s-3.4,0.7-4.6,2c-1.2,1.3-1.8,3.2-1.8,5.7s0.6,4.4,1.8,5.7c1.2,1.4,2.7,2,4.6,2
		C105.8,41.5,107.3,40.8,108.5,39.4z"/>
	<path class="st0" d="M154.7,13.3v14.4c-1.3-0.2-2.5-0.3-3.6-0.3c-5.6,0-8.4,2.8-8.4,8.5v17.5h-16.3V14H142v4.3
		C144.9,15,149.1,13.3,154.7,13.3z"/>
	<path class="st0" d="M195.3,37.5h-27.4c0.6,1.5,1.5,2.6,2.9,3.4c1.3,0.8,3,1.2,5,1.2c1.7,0,3.2-0.2,4.4-0.7
		c1.2-0.4,2.5-1.2,3.9-2.2l8.5,8.6c-3.8,4.2-9.6,6.3-17.2,6.3c-4.8,0-8.9-0.9-12.5-2.6s-6.4-4.2-8.4-7.3c-2-3.1-2.9-6.6-2.9-10.5
		c0-3.9,1-7.5,2.9-10.5c1.9-3.1,4.6-5.5,8-7.2s7.2-2.6,11.4-2.6c4,0,7.6,0.8,10.9,2.4c3.3,1.6,5.9,3.9,7.9,7c1.9,3.1,2.9,6.7,2.9,11
		C195.5,33.9,195.4,35.2,195.3,37.5z M169.8,25.8c-1.1,0.9-1.8,2.2-2.2,3.9h12.7c-0.3-1.6-1.1-2.9-2.2-3.9c-1.1-0.9-2.5-1.4-4.2-1.4
		C172.3,24.4,170.9,24.9,169.8,25.8z"/>
	<path class="st0" d="M200.2,16.2h-14.8V3h46.5v13.2h-14.8v37.2h-17L200.2,16.2L200.2,16.2z"/>
	<path class="st0" d="M269.5,17.7c3,2.9,4.4,7.3,4.4,13.3v22.5h-16.3V33.8c0-4.5-1.6-6.8-4.8-6.8c-1.8,0-3.3,0.6-4.4,1.9
		c-1.1,1.3-1.7,3.3-1.7,6v18.5h-16.3V0h16.3v17.2c3-2.6,6.7-3.9,11.1-3.9C262.6,13.3,266.5,14.8,269.5,17.7z"/>
	<path class="st0" d="M309,18c3.6,3.1,5.5,7.9,5.5,14.3v21.2h-15.1v-5.2c-1.9,3.9-5.6,5.9-11.2,5.9c-3.1,0-5.8-0.5-8-1.6
		s-3.8-2.5-5-4.4s-1.7-3.9-1.7-6.2c0-3.9,1.5-6.8,4.5-8.9c3-2,7.5-3,13.5-3h6.5c-0.5-3.1-3-4.6-7.4-4.6c-1.8,0-3.6,0.3-5.4,0.8
		s-3.4,1.3-4.7,2.3l-5.2-10.7c2.3-1.4,5-2.5,8.2-3.3c3.2-0.8,6.4-1.2,9.5-1.2C300.1,13.3,305.4,14.9,309,18z M296.2,43.4
		c0.9-0.6,1.6-1.6,2-2.8v-2.7h-4c-3.3,0-5,1.1-5,3.3c0,0.9,0.4,1.7,1,2.3c0.7,0.6,1.6,0.9,2.8,0.9C294.3,44.3,295.3,44,296.2,43.4z"
		/>
	<path class="st0" d="M345.2,52.1c-2.5,1.4-5.8,2.1-10,2.1c-5.5,0-9.8-1.3-12.7-4c-3-2.7-4.5-6.7-4.5-12V28.1h-5.4V16.2h5.4v-11
		h16.3v11h8.1v11.9h-8.1V38c0,1.2,0.3,2.1,0.9,2.8c0.6,0.7,1.4,1,2.5,1c1.4,0,2.6-0.4,3.7-1.1L345.2,52.1z"/>
	<path class="st0" d="M344.4,3h17v37.2h22.8v13.2h-39.7V3z"/>
	<path class="st0" d="M419.8,5.3c3.5,1.5,6.1,3.7,8,6.6s2.8,6.2,2.8,10.1s-0.9,7.2-2.8,10.1s-4.5,5.1-8,6.6
		c-3.5,1.5-7.5,2.3-12.2,2.3h-7.3v12.4h-17V3h24.3C412.3,3,416.4,3.8,419.8,5.3z M411.8,26.4c1.1-1,1.7-2.5,1.7-4.4
		s-0.6-3.3-1.7-4.4c-1.1-1-2.9-1.5-5.2-1.5h-6.2v11.8h6.2C408.9,27.9,410.6,27.4,411.8,26.4z"/>
</g>
</svg>
