<?xml version="1.0" encoding="utf-8"?>
<!-- Generator: Adobe Illustrator 24.0.1, SVG Export Plug-In . SVG Version: 6.00 Build 0)  -->
<svg version="1.1" id="Layer_1" xmlns="http://www.w3.org/2000/svg" xmlns:xlink="http://www.w3.org/1999/xlink" x="0px" y="0px"
	 viewBox="0 0 24 24" style="enable-background:new 0 0 24 24;" xml:space="preserve">
<style type="text/css">
	.st0{fill:#EDF7F6;}
</style>
<path class="st0" d="M2.4,24l6.2-6.2c1.6,1.1,3.5,1.7,5.5,1.7c5.4,0,9.7-4.4,9.7-9.7c0-5.4-4.4-9.7-9.7-9.7C8.7,0,4.3,4.4,4.3,9.7
	c0,2.1,0.7,4.1,1.9,5.7L0,21.6C0,21.6,2.4,24,2.4,24z M14.1,16.6c-3.8,0-6.9-3.1-6.9-6.9s3.1-6.9,6.9-6.9S21,5.9,21,9.7
	C21,13.5,17.9,16.6,14.1,16.6z"/>
</svg>
